# Blender v2.78 (sub 0) OBJ File: 'Floor.blend'
# www.blender.org
mtllib Floor.mtl
o Cube
v 2.000000 -0.200000 -2.000000
v 2.000000 -0.200000 2.000000
v -2.000000 -0.200000 2.000000
v -1.999999 -0.200000 -2.000001
v 2.000001 0.200000 -1.999999
v 1.999999 0.200000 2.000001
v -2.000001 0.200000 1.999999
v -2.000000 0.200000 -2.000000
vt 0.4397 0.4397
vt 0.0002 0.4397
vt 0.0002 0.0002
vt 0.4397 0.0002
vt 0.0002 0.4400
vt 0.4397 0.4400
vt 0.4397 0.8796
vt 0.0002 0.8796
vt 0.4400 0.5498
vt 0.4400 0.5001
vt 0.9399 0.4998
vt 0.9399 0.5500
vt 0.9405 0.4998
vt 0.9903 0.4999
vt 0.9903 0.9997
vt 0.9402 0.9998
vt 0.4400 0.0004
vt 0.4912 0.0002
vt 0.4912 0.4995
vt 0.4422 0.4994
vt 0.4999 0.8799
vt 0.4999 0.9305
vt 0.0002 0.9299
vt 0.0002 0.8805
vn 0.0000 -1.0000 0.0000
vn 0.0000 1.0000 0.0000
vn 1.0000 0.0000 0.0000
vn -0.0000 -0.0000 1.0000
vn -1.0000 -0.0000 -0.0000
vn 0.0000 0.0000 -1.0000
usemtl Material
s off
f 1/1/1 2/2/1 3/3/1 4/4/1
f 5/5/2 8/6/2 7/7/2 6/8/2
f 1/9/3 5/10/3 6/11/3 2/12/3
f 2/13/4 6/14/4 7/15/4 3/16/4
f 3/17/5 7/18/5 8/19/5 4/20/5
f 5/21/6 1/22/6 4/23/6 8/24/6
