# Blender v2.78 (sub 0) OBJ File: ''
# www.blender.org
mtllib Plank.mtl
o Cube
v 6.173397 -0.125957 -1.000000
v 6.173397 -0.125957 1.000000
v -6.173398 -0.125957 1.000000
v -6.173394 -0.125957 -1.000000
v 6.173399 0.125957 -1.000000
v 6.173393 0.125957 1.000001
v -6.173399 0.125957 1.000000
v -6.173396 0.125957 -1.000000
vt 0.3243 0.9999
vt 0.1623 0.9999
vt 0.1623 0.0001
vt 0.3243 0.0001
vt 0.0001 0.9999
vt 0.0001 0.0001
vt 0.1621 0.0001
vt 0.1621 0.9999
vt 0.3862 0.3243
vt 0.3658 0.3243
vt 0.3658 0.1623
vt 0.3862 0.1623
vt 0.3655 0.9998
vt 0.3451 0.9998
vt 0.3451 0.0001
vt 0.3655 0.0001
vt 0.3658 0.0001
vt 0.3862 0.0001
vt 0.3862 0.1621
vt 0.3658 0.1621
vt 0.3449 0.9998
vt 0.3245 0.9998
vt 0.3245 0.0001
vt 0.3449 0.0001
vn 0.0000 -1.0000 -0.0000
vn 0.0000 1.0000 0.0000
vn 1.0000 0.0000 0.0000
vn -0.0000 -0.0000 1.0000
vn -1.0000 -0.0000 -0.0000
vn 0.0000 0.0000 -1.0000
usemtl Material
s off
f 1/1/1 2/2/1 3/3/1 4/4/1
f 5/5/2 8/6/2 7/7/2 6/8/2
f 1/9/3 5/10/3 6/11/3 2/12/3
f 2/13/4 6/14/4 7/15/4 3/16/4
f 3/17/5 7/18/5 8/19/5 4/20/5
f 5/21/6 1/22/6 4/23/6 8/24/6
