# Blender v2.78 (sub 0) OBJ File: 'Wall.blend'
# www.blender.org
mtllib Wall.mtl
o Cube
v 1.000000 -1.750000 -0.100000
v 1.000000 -1.750000 0.100000
v -1.000000 -1.750000 0.100000
v -1.000000 -1.750000 -0.100000
v 1.000000 1.750000 -0.099999
v 0.999999 1.750000 0.100001
v -1.000000 1.750000 0.100000
v -1.000000 1.750000 -0.100000
vt 0.9998 0.8685
vt 0.9564 0.8685
vt 0.9564 0.4345
vt 0.9998 0.4345
vt 0.9564 0.4342
vt 0.9564 0.0002
vt 0.9998 0.0002
vt 0.9998 0.4342
vt 0.9123 0.0002
vt 0.9123 0.7597
vt 0.8689 0.7597
vt 0.8689 0.0002
vt 0.8685 0.0002
vt 0.8685 0.7597
vt 0.4345 0.7597
vt 0.4345 0.0002
vt 0.9561 0.0002
vt 0.9561 0.7597
vt 0.9127 0.7597
vt 0.9127 0.0002
vt 0.0002 0.7597
vt 0.0002 0.0002
vt 0.4342 0.0002
vt 0.4342 0.7597
vn 0.0000 -1.0000 0.0000
vn 0.0000 1.0000 0.0000
vn 1.0000 0.0000 0.0000
vn -0.0000 -0.0000 1.0000
vn -1.0000 -0.0000 -0.0000
vn 0.0000 0.0000 -1.0000
usemtl Material
s off
f 1/1/1 2/2/1 3/3/1 4/4/1
f 5/5/2 8/6/2 7/7/2 6/8/2
f 1/9/3 5/10/3 6/11/3 2/12/3
f 2/13/4 6/14/4 7/15/4 3/16/4
f 3/17/5 7/18/5 8/19/5 4/20/5
f 5/21/6 1/22/6 4/23/6 8/24/6
